<svg xmlns="http://www.w3.org/2000/svg" version="1.1" xmlns:xlink="http://www.w3.org/1999/xlink" xmlns:svgjs="http://svgjs.dev/svgjs" width="100%" height="100%" viewBox="0 0 1000 600"><rect width="1000" height="600" x="0" y="0" fill="#f8f8f8"/><g><rect width="333.3333333333333" height="333.3333333333333" y="223.84219970602484" fill="#f49f1b" transform="matrix(0.6199783547446528,0,0,0.6199783547446528,0,57.89298206269167)" x="201.6199493408203"/><path d="M395.329392076741 420.18220276000454L395.329392076741 315.5088540630005L415.0441735767014 315.5088540630005L415.0441735767014 420.18220276000454Q415.0441735767014 434.8382060158403 409.031454292256 444.92685519983763Q403.0476423120627 455.0444116880871 392.467568955779 460.2766337577247Q381.9164029037473 465.5088558273623 368.30106260098876 465.5088558273623L368.30106260098876 465.5088558273623Q354.65681499397795 465.5088558273623 344.10564894194636 460.8547798427676Q333.52557558566264 456.1717965539207 327.5417636054693 446.6034788464618Q321.5290443210239 437.06406844325517 321.5290443210239 422.523694404428L321.5290443210239 422.523694404428L341.2438258209844 422.523694404428Q341.2438258209844 436.5437369667166 348.8175395350454 443.1056950319527Q356.39125324910646 449.6676530971888 368.30106260098876 449.6676530971888L368.30106260098876 449.6676530971888Q376.0193128363105 449.6676530971888 382.11875403351235 446.3144058039404Q388.2181952307142 442.96115851069203 391.7737936537276 436.3992004454559Q395.329392076741 429.8372423802198 395.329392076741 420.18220276000454L395.329392076741 420.18220276000454Z " fill="#e2d3f4" transform="matrix(0.6199783547446528,0,0,0.6199783547446528,0,57.89298206269167)"/><path d="M618.2866087355407 412.5838071603054L618.2866087355407 410.36260060993334Q618.2866087355407 395.22548930369385 624.0727146877446 383.2693651560119Q629.8588206399484 371.340663311421 640.4712519361706 364.34797602321254Q651.0836832323929 357.3552887350041 665.6449261737212 357.3552887350041L665.6449261737212 357.3552887350041Q680.3981252366864 357.3552887350041 691.0928234421817 364.34797602321254Q701.7875216476771 371.340663311421 707.5187829936989 383.2693651560119Q713.2500443397207 395.22548930369385 713.2500443397207 410.36260060993334L713.2500443397207 410.36260060993334L713.2500443397207 412.5838071603054Q713.2500443397207 427.6386515572719 707.5187829936989 439.62219800804485Q701.7875216476771 451.6331667619088 691.1202457452728 458.57100944393517Q680.4803921459595 465.50885212596165 665.8368822953582 465.50885212596165L665.8368822953582 465.50885212596165Q651.1659501416659 465.50885212596165 640.5260965423527 458.57100944393517Q629.8588206399484 451.6331667619088 624.0727146877446 439.62219800804485Q618.2866087355407 427.6386515572719 618.2866087355407 412.5838071603054L618.2866087355407 412.5838071603054ZM636.3304841694276 410.36260060993334L636.3304841694276 412.5838071603054Q636.3304841694276 422.89459312252654 639.5937382372582 431.6697301116509Q642.8844146081799 440.44486710077524 649.3835004407501 445.76479390043187Q655.9100085764113 451.05729839699745 665.8368822953582 451.05729839699745L665.8368822953582 451.05729839699745Q675.6540668019411 451.05729839699745 682.1805749376024 445.76479390043187Q688.6796607701725 440.44486710077524 691.9429148380032 431.6697301116509Q695.2335912089247 422.89459312252654 695.2335912089247 412.5838071603054L695.2335912089247 412.5838071603054L695.2335912089247 410.36260060993334Q695.2335912089247 400.0518146477122 691.9429148380032 391.27667765858786Q688.6796607701725 382.5015406694635 682.1257303314203 377.1541915667159Q675.571799892668 371.8068424639682 665.6449261737212 371.8068424639682L665.6449261737212 371.8068424639682Q655.9100085764113 371.8068424639682 649.328655834568 377.1541915667159Q642.7747253958157 382.5015406694635 639.5663159341673 391.27667765858786Q636.3304841694276 400.0518146477122 636.3304841694276 410.36260060993334L636.3304841694276 410.36260060993334ZM735.6266436619878 315.50885421811734L753.6430967927837 315.50885421811734L753.6430967927837 443.35163122842266L752.107447819687 463.58929090959066L735.6266436619878 463.58929090959066L735.6266436619878 315.50885421811734ZM824.0361488274156 410.5545567315704L824.0361488274156 412.5838071603054Q824.0361488274156 427.83060767890896 819.3195126957612 439.7867318265909Q814.5754542610159 451.74285597427286 805.5260942409814 458.62585405011725Q796.4493119178559 465.50885212596165 783.5334071619885 465.50885212596165L783.5334071619885 465.50885212596165Q770.2335901628469 465.50885212596165 761.3761862644495 459.5033677490297Q752.4913600629611 453.47046106900666 747.5827678096697 442.4192729233282Q742.6741755563783 431.39550708074074 741.1111042801905 416.2583957745012L741.1111042801905 416.2583957745012L741.1111042801905 406.9073904204656Q742.6741755563783 391.57832299258905 747.5827678096697 380.49971254381956Q752.4913600629611 369.393679791959 761.3213416582676 363.38819541502704Q770.1513232535739 357.3552887350041 783.3414510403514 357.3552887350041L783.3414510403514 357.3552887350041Q796.4493119178559 357.3552887350041 805.5260942409814 363.9914860830294Q814.5754542610159 370.65510573414565 819.3195126957612 382.6660744880096Q824.0361488274156 394.64962093878256 824.0361488274156 410.5545567315704L824.0361488274156 410.5545567315704ZM805.9922733935286 412.5838071603054L805.9922733935286 410.5545567315704Q805.9922733935286 400.16150386007627 803.3871545998824 391.44121147713395Q800.8094581093271 382.69349679110064 794.8588183385771 377.51068150689906Q788.9356008709182 372.3004439196065 778.8167710303342 372.3004439196065L778.8167710303342 372.3004439196065Q772.1531513792179 372.3004439196065 767.1897145197445 374.6039173792516Q762.226277660271 376.90739083889673 758.7710674708032 380.8287801809117Q755.2884349782446 384.7227472198356 753.1220730340544 389.6861840793091Q750.9557110898644 394.64962093878256 749.8862412693148 399.9695477384392L749.8862412693148 399.9695477384392L749.8862412693148 423.3881945781648Q751.4493125455026 430.1340811385541 754.9045227349703 436.3589439402142Q758.3871552275291 442.5838067418743 764.310372695188 446.53261838698023Q770.2335901628469 450.4814300320862 779.0087271519712 450.4814300320862L779.0087271519712 450.4814300320862Q788.6613778400081 450.4814300320862 794.584595307667 445.32603705097563Q800.5078127753259 440.1706440698651 803.2500430844273 431.5874632023778Q805.9922733935286 423.0042823348906 805.9922733935286 412.5838071603054L805.9922733935286 412.5838071603054ZM907.2354164055507 435.92018709075796L907.2354164055507 435.92018709075796Q907.2354164055507 432.05364235492505 905.535233613908 428.73554368091243Q903.8624731253561 425.4174450068998 898.7345024473366 422.6752146977984Q893.6339540724081 419.90556208560605 883.323168110187 417.79404474759804L883.323168110187 417.79404474759804Q871.7509562057792 415.38088207558883 863.304886853747 411.67887115830194Q854.8862398048059 407.94943793792413 850.3067151886066 402.19075428881126Q845.7271905724074 396.4046483366074 845.7271905724074 387.82146746912014L845.7271905724074 387.82146746912014Q845.7271905724074 379.512509632543 850.4986713102437 372.6295115566986Q855.27015204808 365.7465134808542 863.9904444310223 361.5509011079291Q872.7107368139647 357.3552887350041 884.3926379307364 357.3552887350041L884.3926379307364 357.3552887350041Q896.9246304433298 357.3552887350041 905.8368789479091 361.74285722956625Q914.7491274524884 366.13042572412843 919.4657635841429 373.5070252556111Q924.2098220188882 380.8836247870937 924.2098220188882 389.85071789785513L924.2098220188882 389.85071789785513L906.1659465850013 389.85071789785513Q906.1659465850013 383.37905436837593 900.5169521482525 377.5929484161721Q894.8953800145946 371.8068424639682 884.3926379307364 371.8068424639682L884.3926379307364 371.8068424639682Q877.0434607023449 371.8068424639682 872.4639360861456 374.0828936205223Q867.8844114699463 376.33152247398544 865.8277387381203 379.86899957272624Q863.7436437032032 383.37905436837593 863.7436437032032 387.24559910420885L863.7436437032032 387.24559910420885Q863.7436437032032 391.0847215369508 865.6906272226653 393.93664105841617Q867.6101884390362 396.7885605798816 872.7655814201468 399.0097671302537Q877.9209744012572 401.2035513775348 887.7655812109311 403.42475792790685L887.7655812109311 403.42475792790685Q900.5717967544344 406.33152205555433 908.8807545910116 410.36260060993334Q917.1622901244978 414.42110146740333 921.2207909819676 420.28947432888026Q925.2518695363467 426.1852694934482 925.2518695363467 434.65876114857133L925.2518695363467 434.65876114857133Q925.2518695363467 443.7355434716968 920.2335880706912 450.72823075990533Q915.2427289081268 457.7209180481138 906.1659465850013 461.6148850870377Q897.1165865649668 465.50885212596165 884.8588170832836 465.50885212596165L884.8588170832836 465.50885212596165Q871.0653986285039 465.50885212596165 861.5224371528311 460.6002598726702Q851.9794756771585 455.6916676193788 847.0708834238669 447.9311558446219Q842.1622911705756 440.1706440698651 842.1622911705756 431.4777739900138L842.1622911705756 431.4777739900138L860.1787443013715 431.4777739900138Q860.6723457570098 438.7995289153144 864.4840458866606 443.10483050060355Q868.2683237132205 447.38270978280167 873.8350512406962 449.2200040898996Q879.374356465081 451.05729839699745 884.8588170832836 451.05729839699745L884.8588170832836 451.05729839699745Q892.1805720085844 451.05729839699745 897.1440088680578 449.0828925744445Q902.1074457275313 447.1084867518915 904.6851422180865 443.68069886551484Q907.2354164055507 440.25291097913816 907.2354164055507 435.92018709075796ZM991.7783768351458 465.50885212596165L991.7783768351458 465.50885212596165Q977.2171338938175 465.50885212596165 966.4675910821401 459.0097662933914Q955.7180482704628 452.51068046082116 949.794830802804 441.13042467805053Q943.871613335145 429.7501688952799 943.871613335145 415.1066590446787L943.871613335145 415.1066590446787L943.871613335145 410.9384689748446Q943.871613335145 393.9914856645982 950.3706991677152 381.98051691073425Q956.8697850002854 369.9695481568703 967.3451047810527 363.6624184459372Q977.7930022587287 357.3552887350041 989.4749033755005 357.3552887350041L989.4749033755005 357.3552887350041Q1004.502325469376 357.3552887350041 1013.9904423388666 364.0463306892114Q1023.5059815114485 370.73737264341867 1027.9758169152835 382.28216224473545Q1032.4730746222099 393.7995295429611 1032.4730746222099 408.3607724842893L1032.4730746222099 408.3607724842893L1032.4730746222099 416.34066268377427L954.5663115406402 416.34066268377427L954.5663115406402 401.8891089548101L1014.4291991883229 401.8891089548101L1014.4291991883229 400.5454161033505Q1014.0452869450487 393.607573421324 1011.6321242730395 386.99879837638974Q1009.2189616010303 380.3900233314555 1003.9264571044648 376.1121440492574Q998.6339526078991 371.8068424639682 989.4749033755005 371.8068424639682L989.4749033755005 371.8068424639682Q981.3579016605605 371.8068424639682 975.1604611619914 376.3863670801675Q968.9355983603314 380.9658916963668 965.3981212615906 389.6861840793091Q961.8880664659409 398.4064764622514 961.8880664659409 410.9384689748446L961.8880664659409 410.9384689748446L961.8880664659409 415.1066590446787Q961.8880664659409 425.0335327636256 965.5626550801367 433.1779567816566Q969.2098213912415 441.32238079968766 976.1476640732678 446.17612844679707Q983.1129290583854 451.05729839699745 992.7381574433311 451.05729839699745L992.7381574433311 451.05729839699745Q1002.1988520097308 451.05729839699745 1008.7527824484831 447.19075366116454Q1015.3067128872353 443.35163122842266 1020.2153051405268 436.87996769894346L1020.2153051405268 436.87996769894346L1031.101959467659 445.38088165715766Q1026.1111003050946 453.0865488257325 1016.7052503448771 459.31141162739254Q1007.2994003846593 465.50885212596165 991.7783768351458 465.50885212596165ZM1114.6851392890685 445.76479390043187L1114.6851392890685 392.0445021451362Q1114.6851392890685 382.69349679110064 1109.1458340646839 377.1541915667159Q1103.606528840299 371.61488634233115 1092.8021414224397 371.61488634233115L1092.8021414224397 371.61488634233115Q1086.1659440744145 371.61488634233115 1081.092818002577 373.9183598019763Q1076.0471142338304 376.2492555647124 1073.250039318547 380.0061110881813Q1070.4529644032636 383.76296661165014 1070.4529644032636 388.20537971239435L1070.4529644032636 388.20537971239435L1052.4090889693766 388.20537971239435Q1052.4090889693766 380.69166866545663 1057.5370596473963 373.5892921648841Q1062.637608022325 366.5143379674026 1071.9337687701784 361.93481335120333Q1081.229929518032 357.3552887350041 1093.8716112429893 357.3552887350041L1093.8716112429893 357.3552887350041Q1105.2518670257598 357.3552887350041 1114.0270040148841 361.19441116774595Q1122.8021410040087 365.0609559035789 1127.7655778634821 372.82146767833575Q1132.7290147229555 380.5819794530926 1132.7290147229555 392.23645826677335L1132.7290147229555 392.23645826677335L1132.7290147229555 440.8287793440494Q1132.7290147229555 446.03901693134196 1133.633950724959 451.93481209590993Q1134.5663090300534 457.80318495738686 1136.3761810340602 462.05364193649393L1136.3761810340602 462.05364193649393L1136.3761810340602 463.58929090959066L1117.591903416716 463.58929090959066Q1116.2482105652562 460.49057066030616 1115.4803860787079 455.33517767919557Q1114.6851392890685 450.1797846980851 1114.6851392890685 445.76479390043187L1114.6851392890685 445.76479390043187ZM1117.783859538353 400.3534599817134L1117.97581565999 412.8854524943066L1100.0416294384672 412.8854524943066Q1084.822251222955 412.8854524943066 1076.5132933863777 417.71177783832496Q1068.2317578528914 422.51068087925233 1068.2317578528914 432.1633315672891L1068.2317578528914 432.1633315672891Q1068.2317578528914 439.6770426142268 1073.277461621638 444.8872802015194Q1078.3505876934755 450.097517788812 1088.0855052907855 450.097517788812L1088.0855052907855 450.097517788812Q1096.2847739149984 450.097517788812 1102.5370590197494 446.6148852962533Q1108.8167664275916 443.1596751067856 1112.4913550417875 438.03170442876603Q1116.1385213528922 432.9311560538375 1116.4401666868935 428.2145199221832L1116.4401666868935 428.2145199221832L1124.1458338554683 436.79770078967044Q1123.4602762781929 440.8287793440494 1120.4712452412725 445.76479390043187Q1117.482214204352 450.6733861537233 1112.5187773448786 455.1432215575585Q1107.555340485405 459.6404792644847 1100.7546093188337 462.5746656952232Q1093.9813004553534 465.50885212596165 1085.480386497139 465.50885212596165L1085.480386497139 465.50885212596165Q1074.8679552009169 465.50885212596165 1066.915487304523 461.4229289654006Q1058.963019408129 457.3095835017486 1054.5754509135668 450.2894739104491Q1050.1878824190046 443.2419420160586 1050.1878824190046 434.65876114857133L1050.1878824190046 434.65876114857133Q1050.1878824190046 417.79404474759804 1062.939253356326 409.0737523646557Q1075.6632019905562 400.3534599817134 1097.1622876139108 400.3534599817134L1097.1622876139108 400.3534599817134L1117.783859538353 400.3534599817134ZM1178.7162170065853 375.67338719980114L1178.7162170065853 463.58929090959066L1160.6723415726983 463.58929090959066L1160.6723415726983 359.274849951375L1178.222615550947 359.274849951375L1178.7162170065853 375.67338719980114ZM1211.2116461694363 358.69898158646373L1211.2116461694363 375.17978574416287Q1208.8807504067001 374.71360659161564 1206.906344584147 374.5490727730696Q1204.9319387615942 374.4119612576145 1202.436509180312 374.4119612576145L1202.436509180312 374.4119612576145Q1194.237240556099 374.4119612576145 1188.58824611935 377.7849045378092Q1182.9392516826015 381.15784781800386 1179.8679537364078 387.0810652856628Q1176.7692334871233 393.03170505641276 1176.001409000575 400.6276830126235L1176.001409000575 400.6276830126235L1170.9008606256464 403.5344471402709Q1170.9008606256464 390.89276541531365 1174.273803905841 380.44486793763747Q1177.6467471860358 369.9695481568703 1184.8313905958812 363.6624184459372Q1192.0160340057269 357.3552887350041 1203.2866005761334 357.3552887350041L1203.2866005761334 357.3552887350041Q1205.1238948832313 357.3552887350041 1207.6741690706956 357.79404558446026Q1210.22444325816 358.20538013082546 1211.2116461694363 358.69898158646373L1211.2116461694363 358.69898158646373ZM1267.5919013245605 451.05729839699745L1267.5919013245605 451.05729839699745Q1273.9538756416755 451.05729839699745 1279.3560693506051 448.3973349971692Q1284.7582630595348 445.76479390043187 1288.2408955520934 441.13042467805053Q1291.6961057415613 436.49605545566925 1292.1897071971996 430.6276825941924L1292.1897071971996 430.6276825941924L1309.24637971981 430.6276825941924Q1308.7527782641716 439.86899873586395 1302.9666723119678 447.82146663225785Q1297.180566359764 455.7739345286518 1287.9392502180924 460.65510447885225Q1278.6705117733297 465.50885212596165 1267.5919013245605 465.50885212596165L1267.5919013245605 465.50885212596165Q1251.8789216534094 465.50885212596165 1241.5681356911884 458.3242087161161Q1231.2573497289673 451.1395653062705 1226.18422365713 439.29313037095267Q1221.1385198883831 427.4466954356348 1221.1385198883831 413.46132085921784L1221.1385198883831 413.46132085921784L1221.1385198883831 409.40282000174784Q1221.1385198883831 395.3351785160579 1226.2390682633118 383.51616588383104Q1231.3396166382404 371.7245755546952 1241.6504026004616 364.5399321448496Q1251.9886108657736 357.3552887350041 1267.5919013245605 357.3552887350041L1267.5919013245605 357.3552887350041Q1279.8496708062432 357.3552887350041 1289.036142341733 362.31872559447754Q1298.2500361803134 367.282162453951 1303.515118373788 375.81049871525624Q1308.7527782641716 384.33883497656143 1309.24637971981 395.1432223944208L1309.24637971981 395.1432223944208L1292.1897071971996 395.1432223944208Q1291.6961057415613 388.6715588649416 1288.5699631891857 383.37905436837593Q1285.4438206368102 378.08654987181035 1280.0690492309716 374.93298501634376Q1274.7217001282238 371.8068424639682 1267.5919013245605 371.8068424639682L1267.5919013245605 371.8068424639682Q1256.705246997428 371.8068424639682 1250.4803841957678 377.400992294535Q1244.2555213941077 382.9951421251018 1241.7052472066434 391.633167598771Q1239.1549730191791 400.24377076934934 1239.1549730191791 409.40282000174784L1239.1549730191791 409.40282000174784L1239.1549730191791 413.46132085921784Q1239.1549730191791 422.6203700916164 1241.6504026004616 431.2858178683767Q1244.1732544848348 439.978687948228 1250.3981172864949 445.5179931726127Q1256.5955577850639 451.05729839699745 1267.5919013245605 451.05729839699745ZM1347.2262695008637 315.50885421811734L1347.2262695008637 463.58929090959066L1329.2098163700678 463.58929090959066L1329.2098163700678 315.50885421811734L1347.2262695008637 315.50885421811734ZM1342.9758125217566 407.37356957301284L1335.4621014748188 407.0993465421027Q1335.654057596456 392.8397489347756 1340.9739843961127 381.59660466746004Q1346.2664888926781 370.3534604001445 1355.7546057621691 363.85437456757427Q1365.2701449347508 357.3552887350041 1377.884404356617 357.3552887350041L1377.884404356617 357.3552887350041Q1388.195190318838 357.3552887350041 1395.6814790626847 361.16698886465497Q1403.1403455034404 364.97868899430586 1407.2536909670923 373.26022452779193Q1411.3396141276535 381.54176006127807 1411.3396141276535 395.22548930369385L1411.3396141276535 395.22548930369385L1411.3396141276535 463.58929090959066L1393.3231609968577 463.58929090959066L1393.3231609968577 395.0335331820567Q1393.3231609968577 386.8616868609347 1390.9374206279394 381.8434053952792Q1388.5791025621122 376.8251239296237 1383.972155642822 374.5490727730696Q1379.3377864204406 372.3004439196065 1372.5918998600512 372.3004439196065L1372.5918998600512 372.3004439196065Q1365.928280208935 372.3004439196065 1360.5260865000052 375.09751883488985Q1355.1238927910756 377.89459375017327 1351.1750811459697 382.8031860034647Q1347.2262695008637 387.7117782567561 1345.1147521628557 394.01890796768924Q1342.9758125217566 400.3534599817134 1342.9758125217566 407.37356957301284L1342.9758125217566 407.37356957301284Z " fill="#f49f1b" transform="matrix(0.6199783547446528,0,0,0.6199783547446528,0,57.89298206269167)"/></g></svg>